<svg viewBox="0 0 330 200" xmlns="http://www.w3.org/2000/svg"><g><g><g><g><g><line x1="62.8125" y1="176" x2="57.8125" y2="176" style="visibility: inherit;" fill="rgb(0, 0, 0)" stroke="rgb(204, 204, 204)" stroke-width="1px"></line><line x1="62.8125" y1="160" x2="57.8125" y2="160" style="visibility: inherit;" fill="rgb(0, 0, 0)" stroke="rgb(204, 204, 204)" stroke-width="1px"></line><line x1="62.8125" y1="144" x2="57.8125" y2="144" style="visibility: inherit;" fill="rgb(0, 0, 0)" stroke="rgb(204, 204, 204)" stroke-width="1px"></line><line x1="62.8125" y1="128" x2="57.8125" y2="128" style="visibility: inherit;" fill="rgb(0, 0, 0)" stroke="rgb(204, 204, 204)" stroke-width="1px"></line><line x1="62.8125" y1="112" x2="57.8125" y2="112" style="visibility: inherit;" fill="rgb(0, 0, 0)" stroke="rgb(204, 204, 204)" stroke-width="1px"></line><line x1="62.8125" y1="96" x2="57.8125" y2="96" style="visibility: inherit;" fill="rgb(0, 0, 0)" stroke="rgb(204, 204, 204)" stroke-width="1px"></line><line x1="62.8125" y1="79.99999999999999" x2="57.8125" y2="79.99999999999999" style="visibility: inherit;" fill="rgb(0, 0, 0)" stroke="rgb(204, 204, 204)" stroke-width="1px"></line><line x1="62.8125" y1="64.00000000000003" x2="57.8125" y2="64.00000000000003" style="visibility: inherit;" fill="rgb(0, 0, 0)" stroke="rgb(204, 204, 204)" stroke-width="1px"></line><line x1="62.8125" y1="48" x2="57.8125" y2="48" style="visibility: inherit;" fill="rgb(0, 0, 0)" stroke="rgb(204, 204, 204)" stroke-width="1px"></line><line x1="62.8125" y1="32" x2="57.8125" y2="32" style="visibility: inherit;" fill="rgb(0, 0, 0)" stroke="rgb(204, 204, 204)" stroke-width="1px"></line><line x1="62.8125" y1="16" x2="57.8125" y2="16" style="visibility: inherit;" fill="rgb(0, 0, 0)" stroke="rgb(204, 204, 204)" stroke-width="1px"></line><line x1="62.8125" y1="0" x2="57.8125" y2="0" style="visibility: inherit;" fill="rgb(0, 0, 0)" stroke="rgb(204, 204, 204)" stroke-width="1px"></line></g><g transform="translate(52.8125, 0)"><text x="0" y="176" dx="0em" dy="0.3em" style="text-anchor: end; visibility: hidden; font-family: &quot;Helvetica Neue&quot;, sans-serif; font-size: 12px; font-weight: 200;" fill="rgb(50, 49, 63)" stroke="none" stroke-width="1px">-0.01</text><text x="0" y="160" dx="0em" dy="0.3em" style="text-anchor: end; visibility: inherit; font-family: &quot;Helvetica Neue&quot;, sans-serif; font-size: 12px; font-weight: 200;" fill="rgb(50, 49, 63)" stroke="none" stroke-width="1px">0</text><text x="0" y="144" dx="0em" dy="0.3em" style="text-anchor: end; visibility: hidden; font-family: &quot;Helvetica Neue&quot;, sans-serif; font-size: 12px; font-weight: 200;" fill="rgb(50, 49, 63)" stroke="none" stroke-width="1px">0.01</text><text x="0" y="128" dx="0em" dy="0.3em" style="text-anchor: end; visibility: inherit; font-family: &quot;Helvetica Neue&quot;, sans-serif; font-size: 12px; font-weight: 200;" fill="rgb(50, 49, 63)" stroke="none" stroke-width="1px">0.02</text><text x="0" y="112" dx="0em" dy="0.3em" style="text-anchor: end; visibility: hidden; font-family: &quot;Helvetica Neue&quot;, sans-serif; font-size: 12px; font-weight: 200;" fill="rgb(50, 49, 63)" stroke="none" stroke-width="1px">0.03</text><text x="0" y="96" dx="0em" dy="0.3em" style="text-anchor: end; visibility: inherit; font-family: &quot;Helvetica Neue&quot;, sans-serif; font-size: 12px; font-weight: 200;" fill="rgb(50, 49, 63)" stroke="none" stroke-width="1px">0.04</text><text x="0" y="79.99999999999999" dx="0em" dy="0.3em" style="text-anchor: end; visibility: hidden; font-family: &quot;Helvetica Neue&quot;, sans-serif; font-size: 12px; font-weight: 200;" fill="rgb(50, 49, 63)" stroke="none" stroke-width="1px">0.05</text><text x="0" y="64.00000000000003" dx="0em" dy="0.3em" style="text-anchor: end; visibility: inherit; font-family: &quot;Helvetica Neue&quot;, sans-serif; font-size: 12px; font-weight: 200;" fill="rgb(50, 49, 63)" stroke="none" stroke-width="1px">0.06</text><text x="0" y="48" dx="0em" dy="0.3em" style="text-anchor: end; visibility: hidden; font-family: &quot;Helvetica Neue&quot;, sans-serif; font-size: 12px; font-weight: 200;" fill="rgb(50, 49, 63)" stroke="none" stroke-width="1px">0.07</text><text x="0" y="32" dx="0em" dy="0.3em" style="text-anchor: end; visibility: inherit; font-family: &quot;Helvetica Neue&quot;, sans-serif; font-size: 12px; font-weight: 200;" fill="rgb(50, 49, 63)" stroke="none" stroke-width="1px">0.08</text><text x="0" y="16" dx="0em" dy="0.3em" style="text-anchor: end; visibility: hidden; font-family: &quot;Helvetica Neue&quot;, sans-serif; font-size: 12px; font-weight: 200;" fill="rgb(50, 49, 63)" stroke="none" stroke-width="1px">0.09</text><text x="0" y="0" dx="0em" dy="0.3em" style="text-anchor: end; visibility: hidden; font-family: &quot;Helvetica Neue&quot;, sans-serif; font-size: 12px; font-weight: 200;" fill="rgb(50, 49, 63)" stroke="none" stroke-width="1px">0.1</text></g><line x1="62.8125" y1="0" x2="62.8125" y2="176" fill="rgb(0, 0, 0)" stroke="rgb(204, 204, 204)" stroke-width="1px"></line></g></g><g transform="translate(62, 0)" clip-path="url(#clip_0)"><clipPath id="clip_0"><rect width="267" height="175"></rect></clipPath><g><g><g><line x1="0" y1="0" x2="0" y2="176" fill="rgb(0, 0, 0)" stroke="rgb(60, 60, 60)" stroke-width="1px" opacity="0.25"></line><line x1="22.265625" y1="0" x2="22.265625" y2="176" fill="rgb(0, 0, 0)" stroke="rgb(60, 60, 60)" stroke-width="1px" opacity="0.25"></line><line x1="44.53125" y1="0" x2="44.53125" y2="176" fill="rgb(0, 0, 0)" stroke="rgb(60, 60, 60)" stroke-width="1px" opacity="0.25"></line><line x1="66.796875" y1="0" x2="66.796875" y2="176" fill="rgb(0, 0, 0)" stroke="rgb(60, 60, 60)" stroke-width="1px" opacity="0.25"></line><line x1="89.0625" y1="0" x2="89.0625" y2="176" fill="rgb(0, 0, 0)" stroke="rgb(60, 60, 60)" stroke-width="1px" opacity="0.25"></line><line x1="111.328125" y1="0" x2="111.328125" y2="176" fill="rgb(0, 0, 0)" stroke="rgb(60, 60, 60)" stroke-width="1px" opacity="0.25"></line><line x1="133.59375" y1="0" x2="133.59375" y2="176" fill="rgb(0, 0, 0)" stroke="rgb(60, 60, 60)" stroke-width="1px" opacity="0.25"></line><line x1="155.859375" y1="0" x2="155.859375" y2="176" fill="rgb(0, 0, 0)" stroke="rgb(60, 60, 60)" stroke-width="1px" opacity="0.25"></line><line x1="178.125" y1="0" x2="178.125" y2="176" fill="rgb(0, 0, 0)" stroke="rgb(60, 60, 60)" stroke-width="1px" opacity="0.25"></line><line x1="200.390625" y1="0" x2="200.390625" y2="176" fill="rgb(0, 0, 0)" stroke="rgb(60, 60, 60)" stroke-width="1px" opacity="0.25"></line><line x1="222.65625" y1="0" x2="222.65625" y2="176" fill="rgb(0, 0, 0)" stroke="rgb(60, 60, 60)" stroke-width="1px" opacity="0.25"></line><line x1="244.921875" y1="0" x2="244.921875" y2="176" fill="rgb(0, 0, 0)" stroke="rgb(60, 60, 60)" stroke-width="1px" opacity="0.25"></line><line x1="267.1875" y1="0" x2="267.1875" y2="176" fill="rgb(0, 0, 0)" stroke="rgb(60, 60, 60)" stroke-width="1px" opacity="0.25"></line></g><g><line x1="0" y1="176" x2="267.1875" y2="176" fill="rgb(0, 0, 0)" stroke="rgb(60, 60, 60)" stroke-width="1px" opacity="0.25"></line><line x1="0" y1="160" x2="267.1875" y2="160" fill="rgb(0, 0, 0)" stroke="rgb(60, 60, 60)" stroke-width="1px" opacity="0.25"></line><line x1="0" y1="144" x2="267.1875" y2="144" fill="rgb(0, 0, 0)" stroke="rgb(60, 60, 60)" stroke-width="1px" opacity="0.25"></line><line x1="0" y1="128" x2="267.1875" y2="128" fill="rgb(0, 0, 0)" stroke="rgb(60, 60, 60)" stroke-width="1px" opacity="0.25"></line><line x1="0" y1="112" x2="267.1875" y2="112" fill="rgb(0, 0, 0)" stroke="rgb(60, 60, 60)" stroke-width="1px" opacity="0.25"></line><line x1="0" y1="96" x2="267.1875" y2="96" fill="rgb(0, 0, 0)" stroke="rgb(60, 60, 60)" stroke-width="1px" opacity="0.25"></line><line x1="0" y1="79.99999999999999" x2="267.1875" y2="79.99999999999999" fill="rgb(0, 0, 0)" stroke="rgb(60, 60, 60)" stroke-width="1px" opacity="0.25"></line><line x1="0" y1="64.00000000000003" x2="267.1875" y2="64.00000000000003" fill="rgb(0, 0, 0)" stroke="rgb(60, 60, 60)" stroke-width="1px" opacity="0.25"></line><line x1="0" y1="48" x2="267.1875" y2="48" fill="rgb(0, 0, 0)" stroke="rgb(60, 60, 60)" stroke-width="1px" opacity="0.25"></line><line x1="0" y1="32" x2="267.1875" y2="32" fill="rgb(0, 0, 0)" stroke="rgb(60, 60, 60)" stroke-width="1px" opacity="0.25"></line><line x1="0" y1="16" x2="267.1875" y2="16" fill="rgb(0, 0, 0)" stroke="rgb(60, 60, 60)" stroke-width="1px" opacity="0.25"></line><line x1="0" y1="0" x2="267.1875" y2="0" fill="rgb(0, 0, 0)" stroke="rgb(60, 60, 60)" stroke-width="1px" opacity="0.25"></line></g></g></g><g><g><line x1="0" y1="160" x2="267.1875" y2="160" fill="rgb(0, 0, 0)" stroke="rgb(153, 153, 153)" stroke-width="1.5px"></line></g></g><g><g><line x1="22.265625" y1="0" x2="22.265625" y2="176" fill="rgb(0, 0, 0)" stroke="rgb(153, 153, 153)" stroke-width="1.5px"></line></g></g><g><g><g><g><g><path stroke="rgb(255, 112, 67)" stroke-width="2px" d="M27.83203125,-3.351028138529415L28.0546875,3.483764387434178L28.27734375,8.501379267459725L28.500000000000004,12.249670799468532L28.72265625,15.11149515947497L28.9453125,17.354245186752223L29.16796875,19.164420272474473L29.390625,20.6720445313141L29.61328125,21.967735194021913L29.8359375,23.11454578395481L30.05859375,24.156292712441143L30.28125,25.123667029020282L30.50390625,26.03783948014504L30.7265625,26.913591522679752L30.94921875,27.76129883563945L31.171875,28.58803082792565L31.394531249999996,29.398753937209023L31.6171875,30.19694870502414L31.83984375,30.98505154736978L32.0625,31.764834257970676L32.28515625,32.53738375490386L32.5078125,33.30347616666728L32.73046875,34.06378697870392L32.953125,34.81867856693222L33.17578125,35.568449419218126L33.3984375,36.31338830082652L33.62109375,37.053492041167004L33.84375,37.78897808297785L34.06640625,38.520024575617555L34.2890625,39.246566747324124L34.51171875,39.968684944329794L34.734375,40.68644167948867L34.95703125,41.39981724005415L35.1796875,42.108990533241524L35.40234375,42.813873400145155L35.625,43.514541691454326L35.84765625,44.210959855265685L36.0703125,44.90323530646998L36.29296875,45.591413420515295L36.515625,46.275459433839956L36.73828125,46.95539063527954L36.9609375,47.63129369208082L37.18359375,48.30309185855904L37.40625000000001,48.97090121193719L37.62890625,49.634715104603714L37.8515625,50.2946439889097L38.07421875,50.95056340140245L38.296875,51.602532178414705L38.51953125,52.250609463604036L38.7421875,52.894873658509084L38.96484375,53.5352430580205L39.1875,54.171749701389416L39.41015625,54.80453678982779L39.6328125,55.4334756673415L39.85546875,56.058660801711085L40.078125,56.6801393368616L40.30078125000001,57.29782988660183L40.5234375,57.91188389082342L40.74609375,58.522253930685466L40.96875,59.128947317670324L41.19140625,59.73205903772745L41.4140625,60.33156025173801L41.63671875,60.92746703483189L41.859375,61.519774726972145L42.08203125,62.10858066793986L42.3046875,62.693890809516375L42.52734375,63.275684880912465L42.75,63.85392210942514L42.97265625,64.4287663821102L43.19531249999999,65.0001634433103L43.41796875,65.56819279636339L43.640625,66.13278770235416L43.86328125,66.69402494303728L44.0859375,67.25185998840536L44.30859375,67.80638771392945L44.53125,68.35757444583203L44.75390625,68.90547865797774L44.9765625,69.45008059841213L45.19921875,69.99144709409366L45.421875,70.52957532585317L45.64453125,71.06452797520551L45.8671875,71.5962544361853L46.08984374999999,72.12482924938818L46.3125,72.65024945545566L46.53515625,73.17248705272897L46.7578125,73.69157530811442L46.98046875,74.20757948128589L47.203125,74.72056495409137L47.42578125,75.23041121519162L47.6484375,75.73724384520384L47.87109375,76.24104759343822L48.09375,76.74179662018037L48.31640625,77.23960416763435L48.5390625,77.73442135601883L48.76171875,78.22627846210983L48.984375,78.7151984203445L49.20703125,79.20115446022673L49.4296875,79.68424972874834L49.65234375,80.16446505178757L49.875,80.64176031464189L50.09765625,81.11620681592137L50.3203125,81.58783064549154L50.54296875,82.05669275680177L50.765625,82.52272720193263L50.98828125,82.98594448003408L51.2109375,83.4463604273393L51.43359375,83.90407514464822L51.65625,84.35904378826596L51.87890625,84.81127998313414L52.1015625,85.2608586614198L52.32421875,85.70772464661994L52.546875,86.1518949007344L52.76953125,86.59341059537837L52.9921875,87.03226543910569L53.21484375,87.46853195099393L53.4375,87.90218450110174L53.66015625,88.33327685285221L53.8828125,88.76173159175282L54.10546875000001,89.18768108304242L54.328125,89.61104977378785L54.55078125,90.0318829312893L54.7734375,90.45023394197061L54.99609375,90.86601801258226L55.21875,91.27937261785209L55.44140625,91.69025388076984L55.6640625,92.09866885373047L55.88671875,92.50466945188671L56.109375,92.90820576201338L56.33203125,93.30933843523538L56.5546875,93.70807525199815L56.77734375,94.10440657545426L57.00000000000001,94.49836000209629L57.22265625,94.88999023679244L57.4453125,95.27930864479154L57.66796875,95.66628151408439L57.890625,96.05090053839447L58.11328125,96.43322510697224L58.3359375,96.81328608499634L58.55859375,97.19104953948657L58.78125,97.56657140460014L59.00390625,97.93986616734504L59.2265625,98.31094251992607L59.44921875,98.67977229906502L59.671875,99.04639344306815L59.89453124999999,99.4107929521324L60.1171875,99.77305124125014L60.33984375,100.13316172314363L60.5625,100.49106084080147L60.78515625,100.84688450557951L61.0078125,101.20054021872856L61.23046875,101.55208453773128L61.453125,101.90155854963463L61.67578125,102.24894160713673L61.8984375,102.59422847441387L62.12109375,102.93742793090077L62.34375,103.27859531215985L62.56640625,103.61771851999855L62.78906249999999,103.95484036340294L63.01171875,104.28994122823462L63.234375,104.62302365112535L63.45703125,104.9540939224257L63.6796875,105.28321780517662L63.90234375,105.6103179320989L64.125,105.93553623350249L64.34765625,106.25876474852436L64.5703125,106.5800436048214L64.79296875,106.89943264177467L65.015625,107.2169129267396L65.23828125,107.53249455780157L65.4609375,107.84618597799759L65.68359375,108.1580113266362L65.90625,108.46794694032985L66.12890625,108.77607398847769L66.3515625,109.08236249458808L66.57421875,109.38675632579339L66.796875,109.6893553167773L67.01953125,109.99015022696213L67.2421875,110.28914743293019L67.46484375,110.58634837644513L67.6875,110.88182067976723L67.91015625,111.1754916674276L68.1328125,111.46740833320497L68.35546875,111.7575702631371L68.578125,112.04599270605425L68.80078125,112.33269434799779L69.0234375,112.61767447966355L69.24609375,112.90095413314114L69.46875,113.18254473559148L69.69140624999999,113.46246983261159L69.9140625,113.74072090179473L70.13671875,114.0173035585329L70.359375,114.29225455066234L70.58203125,114.56552559340399L70.8046875,114.83714255216361L71.02734375,115.10718889547968L71.25,115.37559787937155L71.47265625,115.6424117118606L71.6953125,115.90758061590725L71.91796875,116.17119512667021L72.140625,116.43323207920648L72.36328125,116.69368711129341L72.5859375,116.9526017130346L72.80859375,117.20999720221346L73.03125,117.46586133554926L73.25390625,117.72016411730856L73.4765625,117.9729602677179L73.69921875,118.22420870915369L73.921875,118.47399327549526L74.14453125,118.72227247591726L74.3671875,118.96903333685347L74.58984375,119.2143646336886L74.81250000000001,119.4582099591072L75.03515625,119.70060699429366L75.2578125,119.9415413930789L75.48046874999999,120.18104031054825L75.703125,120.41910811882406L75.92578125,120.6557474411797L76.1484375,120.89099680645892L76.37109375,121.12480899848717L76.59375,121.35723078941213L76.81640625,121.58829620298687L77.0390625,121.81795055161085L77.26171875,122.04625519806245L77.484375,122.27317424234212L77.70703125,122.49874813328063L77.9296875,122.72296180111096L78.15234375,122.94584673513128L78.375,123.16738368194791L78.59765625,123.38760519696173L78.8203125,123.60650697155533L79.04296875,123.8240637707933L79.265625,124.04037131835366L79.48828125,124.25534876566735L79.7109375,124.46904893148903L79.93359375,124.68149873869993L80.15625,124.89264043126927L80.37890625,125.10255975696103L80.60156250000001,125.31118537886535L80.82421875,125.5185746306395L81.046875,125.72475475992057L81.26953125,125.92970516041096L81.4921875,126.1334003553103L81.71484375,126.33587631853285L81.9375,126.53714867396273L82.16015625,126.73721725918722L82.3828125,126.9360724400155L82.60546875,127.13376327220632L82.828125,127.3302691213133L83.05078125,127.52558475922596L83.2734375,127.71975115651519L83.49609375,127.91276786157269L83.71875,128.1046262587832L83.94140625,128.29531760249893L84.1640625,128.48488194486117L84.38671875,128.67328371250997L84.609375,128.86056712653857L84.83203125,129.0467742168106L85.0546875,129.2318288733481L85.27734375,129.4158058315467L85.5,129.59864383637614L85.72265625,129.78040627062146L85.9453125,129.9610715593089L86.16796875,130.14066013605532L86.39062499999999,130.31920214242422L86.61328125,130.49664890615153L86.8359375,130.67306539921765L87.05859375,130.84838450854306L87.28125,131.0226756388264L87.50390625,131.19591605987054L87.7265625,131.3681243200654L87.94921875,131.53930797216617L88.171875,131.70947870038344L88.39453125,131.87861013664244L88.6171875,132.04676513822935L88.83984375,132.2138967809204L89.0625,132.38001148087523L89.28515625,132.5451309691831L89.5078125,132.70929927891282L89.73046875,132.87247249642485L89.953125,133.03466242050808L90.17578125,133.19591070112992L90.3984375,133.3561719947899L90.62109375,133.51546320282486L90.84375,133.67380281068722L91.06640625,133.83118998871947L91.2890625,133.9876409284276L91.51171875000001,134.1431581921579L91.734375,134.29776715917595L91.95703125,134.45144610216147L92.17968749999999,134.60421655541614L92.40234375,134.7560473320839L92.625,134.90699661004288L92.84765625,135.0570176376566L93.0703125,135.20614733300596L93.29296875,135.3543816208958L93.515625,135.50173355341667L93.73828125,135.6482115578694L93.9609375,135.79378194761532L94.18359375,135.93852047414933L94.40625,136.08237960512253L94.62890625,136.22538029298073L94.8515625,136.36752259221606L95.07421875,136.50883037738163L95.296875,136.64927624995804L95.51953125,136.78888072571334L95.7421875,136.92765671015488L95.96484375,137.06560717821543L96.1875,137.20271484136833L96.41015625,137.33900449323806L96.6328125,137.47448743372055L96.85546875,137.60916865461405L97.078125,137.7430290972789L97.30078125000001,137.8760907051325L97.5234375,138.00836783631803L97.74609375,138.1398691057215L97.96875,138.27057822460233L98.19140625,138.4004973406452L98.4140625,138.5296247622286L98.63671875,138.65798510437696L98.859375,138.78558657959394L99.08203125,138.9124454402643L99.3046875,139.03852673433528L99.52734375,139.16382975615446L99.75,139.28841964743964L99.97265625,139.41225800718325L100.1953125,139.5353402722207L100.41796875,139.65767920186087L100.640625,139.77930033308246L100.86328125,139.90022375644435L101.0859375,140.02037807977908L101.30859375,140.13984265730807L101.53125,140.25859119180456L101.75390625,140.37660969307194L101.9765625,140.49396188861232L102.19921875,140.6105757463342L102.421875,140.72649149348533L102.64453125,140.84173743873953L102.8671875,140.95627871126007L103.08984374999999,141.07014147621436L103.3125,141.18331461061265L103.53515625,141.29582422321573L103.7578125,141.40765558091124L103.98046875,141.5188260698755L104.203125,141.6293198957705L104.42578125,141.7391395029225L104.6484375,141.84833761792171L104.87109375,141.9568600460338L105.09375,142.06473268297L105.31640625,142.1719567610424L105.5390625,142.27855030498512L105.76171875,142.38449730754857L105.984375,142.48982213903048L106.20703125,142.59451498370515L106.4296875,142.6985681639978L106.65234375,142.80200747173242L106.875,142.9048263282848L107.09765625,143.00704164810614L107.3203125,143.10865165893816L107.54296875,143.20964337649693L107.765625,143.31004060067386L107.98828125,143.40982840512783L108.21093750000001,143.50901511940114L108.43359375,143.60761110563726L108.65625,143.7056160246113L108.87890624999999,143.80303265302058L109.1015625,143.89988113432332L109.32421875,143.9961228906465L109.546875,144.09181643362953L109.76953125,144.18691878817148L109.9921875,144.28146377385656L110.21484375,144.37544426429866L110.4375,144.46885181134104L110.66015625,144.56171591678356L110.8828125,144.65402745961603L111.10546875,144.74578215932524L111.328125,144.83697208318517L111.55078125,144.92763836713675L111.7734375,145.0177681418183L111.99609375,145.10735487770575L112.21875,145.19639525313102L112.44140625,145.28488846718622L112.6640625,145.37287933885665L112.88671875,145.46034469163186L113.109375,145.54728015634873L113.33203125,145.63368728383458L113.5546875,145.71956640853927L113.77734375,145.8049540899661L114.00000000000001,145.88980848684707L114.22265625,145.97417303976297L114.4453125,146.0580279174857L114.66796875,146.14137731453258L114.890625,146.22425176179692L115.11328125,146.3066075889843L115.3359375,146.38848654321296L115.55859375,146.46985883648077L115.78125,146.5507507034235L116.00390625,146.6311671559866L116.2265625,146.71110047250124L116.44921875,146.79055257647713L116.671875,146.86952521806646L116.89453125,146.94804328921848L117.1171875,147.0260800018514L117.33984375,147.1036449131134L117.5625,147.18075746636168L117.78515625,147.25739356482373L118.0078125,147.3335876262447L118.23046875,147.40930576302176L118.453125,147.48458814130763L118.67578125,147.55942041579806L118.8984375,147.6337835484977L119.12109375,147.70771916474314L119.34375,147.78121826508885L119.56640625,147.85428528463393L119.78906249999999,147.9268915919992L120.01171875,147.99907335451442L120.234375,148.0708337951374L120.45703125,148.1421653108997L120.6796875,148.2130475447895L120.90234375,148.2835237149192L121.125,148.35355895541866L121.34765625,148.42319701780534L121.5703125,148.49242362183128L121.79296875,148.56122364283678L122.015625,148.62959962893174L122.23828125,148.69758857374575L122.4609375,148.76516230753177L122.68359375,148.83232628018328L122.90625,148.89908525175252L123.12890625,148.96545250908375L123.3515625,149.0314220171919L123.57421875,149.09700684438647L123.796875,149.1622029107243L124.01953125,149.2270053840536L124.2421875,149.291409576944L124.46484375,149.35544694960802L124.6875,149.4190931648057L124.91015625000001,149.48235269367942L125.1328125,149.54523596751838L125.35546875,149.60774715893356L125.57812499999999,149.66989115567736L125.80078125,149.73164555842718L126.0234375,149.7930219615402L126.24609375,149.85405324965134L126.46875,149.91471832435974L126.69140625,149.97502330208806L126.9140625,150.03494860687846L127.13671875,150.0945316669881L127.359375,150.15374993786452L127.58203125,150.21261522475027L127.8046875,150.27113252462829L128.02734375,150.32930721987418L128.25,150.3871207842179L128.47265625,150.44460531526494L128.6953125,150.50173864635042L128.91796875,150.5585128418935L129.140625,150.6149651618202L129.36328125,150.67107296057938L129.5859375,150.72683844607113L129.80859375,150.7822829105916L130.03125,150.83740482440368L130.25390625,150.89218389815554L130.4765625,150.9466338862566L130.69921875,151.00076691565442L130.921875,151.05456373845055L131.14453125,151.10805572125028L131.3671875,151.16123188169425L131.58984375,151.21406953711286L131.8125,151.26660812603816L132.03515625,151.31883078043094L132.2578125,151.37072678342122L132.48046875,151.4223218913952L132.703125,151.47361129260537L132.92578125,151.5245956762819L133.1484375,151.5752602567785L133.37109375,151.62562447491368L133.59375,151.67569612087655L133.81640625,151.72545930517822L134.0390625,151.77492475970453L134.26171874999997,151.82410458602826L134.484375,151.8729801170726L134.70703125,151.92156786875123L134.9296875,151.96987417433377L135.15234375,152.0178849523885L135.375,152.06560903940337L135.59765625,152.11305769773566L135.8203125,152.1602165251508L136.04296875,152.20707568821518L136.265625,152.2536766725612L136.48828125,152.2999969838758L136.7109375,152.34602878801223L136.93359375,152.39178794808504L137.15625,152.43727593533586L137.37890625,152.48248647995229L137.6015625,152.5274360856261L137.82421875,152.57210723643578L138.046875,152.61651326468632L138.26953125,152.66066574603943L138.4921875,152.7045507642664L138.71484375,152.74817904311644L138.9375,152.79153883742228L139.16015625,152.83464098147712L139.38281249999997,152.8774794588814L139.60546875,152.92006734909592L139.828125,152.9623886579393L140.05078125,153.0044629951786L140.2734375,153.04628215911814L140.49609375,153.08785404373901L140.71875,153.12917474275645L140.94140625,153.17025174716602L141.1640625,153.21109759819205L141.38671875,153.251678395341L141.609375,153.29203012470612L141.83203125,153.33214278748162L142.0546875,153.37200949031427L142.27734375,153.4116415943999L142.5,153.45102624692313L142.72265625,153.49018345235464L142.9453125,153.52910524582074L143.16796875,153.56779906734948L143.390625,153.60625239363387L143.61328125,153.64449019522115L143.8359375,153.68249407583858L144.05859375,153.72026044830315L144.28125,153.75780146541973L144.50390625000003,153.79511920346488L144.7265625,153.83221654733222L144.94921875,153.86909120464446L145.171875,153.90575059166025L145.39453125,153.94218664115948L145.6171875,153.9783992811816L145.83984375,154.01440098552567L146.0625,154.050199685506L146.28515625,154.0857645261359L146.5078125,154.12112363505793L146.73046875,154.15627898769634L146.953125,154.19122565982974L147.17578125,154.22595980285547L147.3984375,154.2604727001127L147.62109375,154.29478236741642L147.84375,154.3289003593136L148.06640625,154.36279784574563L148.2890625,154.39651549419435L148.51171875,154.4300176534693L148.734375,154.46332555017713L148.95703125,154.4964255452266L149.1796875,154.5293242073125L149.40234375,154.56203084206976L149.62500000000003,154.59453583369492L149.84765625,154.6268585956683L150.0703125,154.65899334171954L150.29296875,154.69092602026188L150.515625,154.7226595252259L150.73828125,154.7542136233749L150.96093749999997,154.78557201157224L151.18359375,154.81675500828155L151.40625,154.84775543307143L151.62890625,154.87856361326502L151.8515625,154.90918238792972L152.07421875,154.93962359329555L152.296875,154.9698827081948L152.51953125,154.9999583610314L152.7421875,155.02984734466182L152.96484375,155.05956144386832L153.1875,155.08909670266095L153.41015625,155.11845104546893L153.6328125,155.14764036328523L153.85546875,155.17665392512637L154.078125,155.20549631926153L154.30078125,155.2341533113285L154.5234375,155.26265033535742L154.74609375,155.29097627671115L154.96875,155.3191313211414L155.19140625,155.34712601091223L155.4140625,155.37493925324534L155.63671875,155.40259057898197L155.859375,155.43007680546566L156.08203124999997,155.45739393693998L156.3046875,155.4845537320542L156.52734375,155.51155534838244L156.75,155.53839276703957L156.97265625,155.56506699605444L157.1953125,155.59157953431404L157.41796875,155.61793753963826L157.640625,155.64413994230102L157.86328125,155.670185206397L158.0859375,155.69607181433656L158.30859375,155.72180138876328L158.53125,155.74738429099494L158.75390625,155.772815263928L158.9765625,155.79809398452105L159.19921875,155.82321593761242L159.421875,155.84818422555804L159.64453125,155.87299728250431L159.8671875,155.89767160329777L160.08984375,155.92220352478955L160.3125,155.94658473961434L160.53515625,155.97082024713086L160.7578125,155.99490678846675L160.98046875,156.01885939562223L161.20312500000003,156.042660414719L161.42578125,156.06632130714857L161.6484375,156.0898426912582L161.87109375,156.11322359695174L162.09375,156.1364604619392L162.31640625,156.15955755634596L162.5390625,156.18251133277113L162.76171875,156.20533650108632L162.984375,156.22802102558884L163.20703125,156.25057318206473L163.4296875,156.27299599883463L163.65234375,156.29527996800843L163.875,156.31743234886233L164.09765625,156.33944781120718L164.3203125,156.36133254466117L164.54296875,156.3830823653797L164.765625,156.404712048403L164.98828125,156.42620408369993L165.2109375,156.44757508536514L165.43359375,156.4688229519149L165.65625,156.48993196833254L165.87890625,156.5109169945009L166.1015625,156.5317784526877L166.32421875000003,156.55251346700982L166.546875,156.57312567635532L166.76953125,156.5936129427204L166.9921875,156.61397606946525L167.21484375,156.634215538606L167.4375,156.6543450503975L167.66015624999997,156.67435077127396L167.8828125,156.69422887144435L168.10546875,156.71400029884546L168.328125,156.733642455499L168.55078125,156.7531748631958L168.7734375,156.77258420105957L168.99609375,156.79188542435278L169.21875,156.81105934303827L169.44140625,156.83012767268315L169.6640625,156.8490866043156L169.88671875,156.86792193162356L170.109375,156.88664956872412L170.33203125,156.90527131548373L170.5546875,156.92376768821984L170.77734375,156.94215769311492L171,156.96044319713536L171.22265625,156.97861049380555L171.4453125,156.99667557362707L171.66796875,157.014634172821L171.890625,157.0324769530916L172.11328125,157.0502190985813L172.3359375,157.06785936346853L172.55859375,157.08538388723855L172.78124999999997,157.10281147369577L173.00390625,157.12013686483402L173.2265625,157.1373499023038L173.44921875,157.15446877998818L173.671875,157.17147863520808L173.89453125,157.18839409419076L174.1171875,157.20519949476824L174.33984375,157.22191539097372L174.5625,157.23852230124797L174.78515625,157.2550291002579L175.0078125,157.27144722227976L175.23046875,157.2877615486665L175.453125,157.30397537619373L175.67578125,157.3200923965603L175.8984375,157.336112366094L176.12109375,157.35204057751525L176.34375,157.3678708187248L176.56640625,157.38361150690946L176.7890625,157.39925979476592L177.01171875,157.41480287254703L177.234375,157.43026024902375L177.45703125,157.44561799946138L177.6796875,157.46089377154533L177.90234375000003,157.4760702887155L178.125,157.49116639131174L178.34765625,157.50616596540132L178.5703125,157.52107580840777L178.79296875,157.53589776361102L179.015625,157.55063070180483L179.23828125,157.56527871383707L179.4609375,157.5798291295378L179.68359375,157.5943000513082L179.90625,157.60868036137612L180.12890625,157.6229805254137L180.3515625,157.63719184715723L180.57421875,157.65131857108577L180.796875,157.66535914606752L181.01953125,157.67931659023108L181.2421875,157.69319331050002L181.46484375,157.70697912812284L181.6875,157.72069043660196L181.91015625,157.7343167319538L182.1328125,157.74786996571075L182.35546875,157.76133853332908L182.578125,157.77472649894185L182.80078125,157.78802452911154L183.02343750000003,157.80124937551747L183.24609375,157.81440058384854L183.46875,157.82746558806014L183.69140625,157.84045204770987L183.9140625,157.8533581510331L184.13671875,157.86619204969082L184.35937499999997,157.8789519291572L184.58203125,157.89162895211294L184.8046875,157.904237932734L185.02734375,157.91677017615575L185.25,157.92922508481942L185.47265625,157.94160580196262L185.6953125,157.95391413902212L185.91796875,157.96614440283162L186.140625,157.97830703557122L186.36328125,157.99039705217237L186.5859375,158.0024137712738L186.80859375,158.0143593172563L187.03125,158.0262249064644L187.25390625,158.03802888704536L187.4765625,158.04975797899482L187.69921875,158.06141755084943L187.921875,158.07300836503953L188.14453125,158.0845251420763L188.3671875,158.09597782728832L188.58984375,158.10735897682764L188.8125,158.11867351211703L189.03515625,158.1299237154579L189.2578125,158.14110290960406L189.48046874999997,158.1522206482645L189.703125,158.16326969965434L189.92578125,158.17425094010912L190.1484375,158.1851625857501L190.37109375,158.19601399706298L190.59375,158.20679924193914L190.81640625,158.21751774134574L191.0390625,158.2281753318449L191.26171875,158.23876270037533L191.484375,158.2492938541272L191.70703125,158.25976237075915L191.9296875,158.27016864369745L192.15234375,158.28050642699262L192.375,158.29078985446847L192.59765625,158.30100952502582L192.8203125,158.31116024504L193.04296875,158.32125633269487L193.265625,158.33128901904786L193.48828125,158.3412622069476L193.7109375,158.35117786557421L193.93359375,158.36103970963327L194.15625,158.37083894108872L194.37890625,158.38057937082732L194.60156250000003,158.3902632108753L194.82421875,158.39988329478652L195.046875,158.40944620054097L195.26953125,158.41895393777568L195.4921875,158.42840763776707L195.71484375,158.43780168354039L195.9375,158.44713933592752L196.16015625,158.45642229065726L196.3828125,158.46565387484685L196.60546875,158.4748281126455L196.828125,158.48394864560578L197.05078125,158.49300730235225L197.2734375,158.50202194158345L197.49609375,158.510978840614L197.71875,158.51988593359272L197.94140625,158.5287322602837L198.1640625,158.53752718878798L198.38671875,158.54627157159456L198.609375,158.55496010874396L198.83203125,158.56360686835458L199.0546875,158.5721916065622L199.27734375,158.58072959518483L199.5,158.58921379230054L199.72265625000003,158.59765062708635L199.9453125,158.60603799658406L200.16796875,158.61437244109743L200.390625,158.62265832956095L200.61328125,158.6308976127831L200.8359375,158.6390844204502L201.05859374999997,158.6472211535857L201.28125,158.65530291981017L201.50390625,158.6633441808016L201.7265625,158.67133666349596L201.94921875,158.67927756472318L202.171875,158.68717689999275L202.39453125,158.69502868317562L202.6171875,158.70282831676602L202.83984375,158.71057874195458L203.0625,158.71828671534468L203.28515625,158.7259527146197L203.5078125,158.73357136394839L203.73046875,158.74114431796227L203.953125,158.74866798733328L204.17578125,158.75615530589016L204.3984375,158.76359041558976L204.62109375,158.7709858553247L204.84375,158.77833622167327L205.06640625,158.78563499432695L205.2890625,158.79289763261016L205.51171875,158.80011720710476L205.734375,158.80728851707863L205.95703125,158.81442453534657L206.17968749999997,158.8215080488995L206.40234375,158.8285557382867L206.625,158.83555939516813L206.84765625,158.84252426458232L207.0703125,158.84944406856795L207.29296875,158.85632368302169L207.515625,158.86315716729058L207.73828125,158.86995712474283L207.9609375,158.8767097714859L208.18359375,158.88342740078673L208.40625,158.89010416382496L208.62890625,158.8967367375728L208.8515625,158.90333683728198L209.07421875,158.90988936387907L209.296875,158.91640850373156L209.51953125,158.9228883145335L209.7421875,158.9293251191427L209.96484375,158.93573053210076L210.1875,158.9420909585303L210.41015625,158.94841820906078L210.6328125,158.95470793342875L210.85546875,158.96095465300255L211.078125,158.9671650643812L211.30078125000003,158.97333990726867L211.5234375,158.9794772785544L211.74609375,158.98557853231668L211.96875,158.9916477592578L212.19140625,158.99767925541343L212.4140625,159.0036679965302L212.63671875,159.0096234850314L212.859375,159.0155454991595L213.08203125,159.0214294727645L213.3046875,159.0272803402544L213.52734375,159.0330994603992L213.75,159.0388828055835L213.97265625,159.04462658088067L214.1953125,159.05033558738623L214.41796875,159.05601359982725L214.640625,159.061656326529L214.86328125,159.06726648239888L215.0859375,159.0728492354071L215.30859375,159.07838850109076L215.53125,159.08389940195258L215.75390625,159.08937719066725L215.9765625,159.09482572436207L216.19921875,159.10023807859343L216.42187500000003,159.10561546311334L216.64453125,159.1109591998193L216.8671875,159.11627373263437L217.08984375,159.12156247297048L217.3125,159.12681245475483L217.53515625,159.13203459930105L217.75781249999997,159.13722633243611L217.98046875,159.14238398624067L218.203125,159.14751087339286L218.42578125,159.15260544247366L218.6484375,159.15767015264595L218.87109375,159.1627074852357L219.09375,159.16771509198963L219.31640625,159.17269435792338L219.5390625,159.17764127116902L219.76171875,159.18255562252702L219.984375,159.1874463389331L220.20703125,159.1923020499953L220.4296875,159.19712919551185L220.65234375,159.20192903165847L220.875,159.20669962993162L221.09765625,159.21144348401367L221.3203125,159.21615704234563L221.54296875,159.2208441158302L221.765625,159.22550170109673L221.98828125,159.2301333605409L222.2109375,159.23473525250913L222.43359375,159.2393120755551L222.65625,159.24385990603554L222.87890624999997,159.24838195907347L223.1015625,159.2528748738305L223.32421875,159.2573427432797L223.546875,159.26178202548752L223.76953125,159.26619612734993L223.9921875,159.27058210111545L224.21484375,159.27494352392486L224.4375,159.27927859325487L224.66015625,159.28359023227858L224.8828125,159.28787414130312L225.10546875,159.29213230399336L225.328125,159.29636395477084L225.55078125,159.30057332815426L225.7734375,159.30475586817678L225.99609375,159.30890871087323L226.21875,159.31303891092307L226.44140625,159.3171473669992L226.6640625,159.32122986856018L226.88671875,159.3252850254948L227.109375,159.32931831810325L227.33203125,159.33333111604125L227.5546875,159.3373174610738L227.77734375,159.3412785838845L228.00000000000003,159.34521742080466L228.22265625,159.34913081624993L228.4453125,159.35302293046647L228.66796875,159.35688979622324L228.890625,159.3607365396416L229.11328125,159.36455973576284L229.3359375,159.36836045885548L229.55859375,159.37213734182396L229.78125,159.37588902424383L230.00390625,159.37961968174938L230.2265625,159.38333148444514L230.44921875,159.38701470753443L230.671875,159.390682272976L230.89453125,159.394328318009L231.1171875,159.3979495298679L231.33984375,159.40154569040627L231.5625,159.40512637311753L231.78515625,159.40868163862547L232.0078125,159.41221614038182L232.23046875,159.4157326145782L232.453125,159.41922236524903L232.67578125,159.42269554163744L232.8984375,159.4261452879055L233.12109375000003,159.42957926246785L233.34375,159.43298734547653L233.56640625,159.43637661529755L233.7890625,159.43974811520084L234.01171875,159.44309930465164L234.234375,159.4464279887768L234.45703124999997,159.44973903463438L234.6796875,159.4530278932521L234.90234375,159.4563006455582L235.125,159.45955212979803L235.34765625,159.46278208013945L235.5703125,159.46599354083284L235.79296875,159.4691839239594L236.015625,159.47235786074975L236.23828125,159.4755127841507L236.4609375,159.47865019004195L236.68359375,159.48176913193254L236.90625,159.484866154828L237.12890625,159.4879458353748L237.3515625,159.4910066541034L237.57421875,159.4940518902837L237.796875,159.4970781470596L238.01953125,159.50008252950067L238.2421875,159.5030718874428L238.46484375,159.5060416508611L238.6875,159.5089956715045L238.91015625,159.51193069111332L239.1328125,159.51484700853243L239.35546875,159.51774728038677L239.57812499999997,159.52062935673456L239.80078125,159.52349591504492L240.0234375,159.526344631618L240.24609375,159.52917567685589L240.46875,159.53199043822494L240.69140625,159.53478715912823L240.9140625,159.53756942359402L241.13671875,159.5403348371851L241.359375,159.54308116230175L241.58203125,159.5458132031131L241.8046875,159.54852784440328L242.02734375,159.55122839519626L242.25,159.5539126313284L242.47265625,159.55657884577244L242.6953125,159.559231043454L242.91796875,159.56186579724906L243.140625,159.56448339781616L243.36328125,159.56708711154135L243.5859375,159.56967375735564L243.80859375,159.5722477409847L244.03125,159.5748065649633L244.25390625,159.57734744558718L244.4765625,159.57987525051823L244.69921875000003,159.5823875731885" style="fill: none;" fill="none"></path></g></g></g></g><g opacity="0.2"><g><g><g><path stroke="rgb(255, 112, 67)" stroke-width="2px" d="M27.1640625,-5.349364280700684L27.38671875,1.753542423248291L27.609375,6.9422101974487305L27.83203125,10.801301002502441L28.0546875,13.735935688018799L28.27734375,16.027793884277344L28.500000000000004,17.87210464477539L28.72265625,19.40423011779785L28.9453125,20.718369483947754L29.16796875,21.879682540893555L29.390625,22.933480739593506L29.61328125,23.91127109527588L29.8359375,24.83476161956787L30.05859375,25.718913078308105L30.28125,26.57472848892212L30.50390625,27.409098148345947L30.7265625,28.227219581604004L30.94921875,29.032859802246094L31.171875,29.828128814697266L31.394531249999996,30.61483860015869L31.6171875,31.394240856170683L31.83984375,32.167205810546875L32.0625,32.934508323669434L32.28515625,33.696208000183105L32.5078125,34.45261478424072L32.73046875,35.20425319671631L32.953125,35.951015949249296L33.17578125,36.693105697631836L33.3984375,37.43079662322998L33.62109375,38.16364765167239L33.84375,38.892207145690946L34.06640625,39.616594314575195L34.2890625,40.33638000488281L34.51171875,41.05186223983765L34.734375,41.76307678222656L34.95703125,42.4698805809021L35.1796875,43.17275047302249L35.40234375,43.87119770050049L35.625,44.56554412841797L35.84765625,45.255587100982666L36.0703125,45.94164848327637L36.29296875,46.62368059158325L36.515625,47.301528453826904L36.73828125,47.975287437438965L36.9609375,48.64514827728273L37.18359375,49.31078910827637L37.40625000000001,49.97261524200441L37.62890625,50.63043594360353L37.8515625,51.28453731536867L38.07421875,51.9344425201416L38.296875,52.58048534393312L38.51953125,53.22272539138794L38.7421875,53.8612699508667L38.96484375,54.4957971572876L39.1875,55.126509666442885L39.41015625,55.753717422485366L39.6328125,56.376883983612075L39.85546875,56.996438503265395L40.078125,57.61235713958742L40.30078125000001,58.22436571121216L40.5234375,58.832964897155776L40.74609375,59.43780899047853L40.96875,60.0389873981476L41.19140625,60.636726617813125L41.4140625,61.23081207275392L41.63671875,61.821327209472656L41.859375,62.40823626518251L42.08203125,62.99178957939148L42.3046875,63.5718560218811L42.52734375,64.14837598800659L42.75,64.72127795219421L42.97265625,65.2910327911377L43.19531249999999,65.85725903511047L43.41796875,66.42023682594301L43.640625,66.97968006134035L43.86328125,67.5358808040619L44.0859375,68.08861255645753L44.30859375,68.63817930221559L44.53125,69.18435454368591L44.75390625,69.7273349761963L44.9765625,70.26698350906373L45.19921875,70.80349683761597L45.421875,71.33676767349245L45.64453125,71.86695694923401L45.8671875,72.39384412765503L46.08984374999999,72.9176914691925L46.3125,73.4383797645569L46.53515625,73.95584344863892L46.7578125,74.47020769119263L46.98046875,74.9815857410431L47.203125,75.49004316329957L47.42578125,75.99518060684204L47.6484375,76.49749279022217L47.87109375,76.9967532157898L48.09375,77.49292016029356L48.31640625,77.98631548881531L48.5390625,78.47664713859558L48.76171875,78.96406412124632L48.984375,79.44857835769653L49.20703125,79.93008852005005L49.4296875,80.40889263153076L49.65234375,80.88478803634644L49.875,81.35770320892334L50.09765625,81.82787656784058L50.3203125,82.2952663898468L50.54296875,82.75998592376709L50.765625,83.2217788696289L50.98828125,83.68077039718628L51.2109375,84.13698434829712L51.43359375,84.59064722061157L51.65625,85.04149675369261L51.87890625,85.48963427543639L52.1015625,85.93522667884827L52.32421875,86.37802362442017L52.546875,86.81815028190613L52.76953125,87.25568413734436L52.9921875,87.69054770469666L53.21484375,88.1229317188263L53.4375,88.55266332626343L53.66015625,88.9799153804779L53.8828125,89.40441370010376L54.10546875000001,89.8266053199768L54.328125,90.246102809906L54.55078125,90.6631326675415L54.7734375,91.07776045799255L54.99609375,91.48969411849976L55.21875,91.89940452575684L55.44140625,92.30657577514648L55.6640625,92.71129131317139L55.88671875,93.1136703491211L56.109375,93.51351022720337L56.33203125,93.91103744506836L56.5546875,94.30618047714233L56.77734375,94.69890356063843L57.00000000000001,95.08929014205933L57.22265625,95.47743558883667L57.4453125,95.86328625679016L57.66796875,96.24674081802368L57.890625,96.62782907485962L58.11328125,97.00671195983887L58.3359375,97.38337755203247L58.55859375,97.75769472122192L58.78125,98.12985420227051L59.00390625,98.4998083114624L59.2265625,98.86755704879761L59.44921875,99.23301696777344L59.671875,99.59632515907288L59.89453124999999,99.95739221572876L60.1171875,100.31643867492676L60.33984375,100.67332744598389L60.5625,101.02790951728821L60.78515625,101.38062000274658L61.0078125,101.73102378845215L61.23046875,102.07940101623535L61.453125,102.42576956748962L61.67578125,102.77001619338989L61.8984375,103.11215877532959L62.12109375,103.4522271156311L62.34375,103.79034638404846L62.56640625,104.12640333175659L62.78906249999999,104.46052312850952L63.01171875,104.79259252548218L63.234375,105.12264728546143L63.45703125,105.45069932937622L63.6796875,105.77690362930298L63.90234375,106.1009681224823L64.125,106.42336368560791L64.34765625,106.74360752105713L64.5703125,107.06196188926697L64.79296875,107.37851619720459L65.015625,107.69313335418701L65.23828125,108.00586700439453L65.4609375,108.31672310829163L65.68359375,108.62574934959412L65.90625,108.93285036087036L66.12890625,109.23826456069946L66.3515625,109.54179525375366L66.57421875,109.84334707260132L66.796875,110.14325380325317L67.01953125,110.44134259223938L67.2421875,110.73764324188232L67.46484375,111.03214979171753L67.6875,111.32502913475037L67.91015625,111.61599814891815L68.1328125,111.90528333187103L68.35546875,112.19281315803528L68.578125,112.47862637042999L68.80078125,112.76274681091309L69.0234375,113.04514467716217L69.24609375,113.32587361335754L69.46875,113.60493063926697L69.69140624999999,113.88235747814178L69.9140625,114.15809750556946L70.13671875,114.43217754364014L70.359375,114.7046810388565L70.58203125,114.97543215751648L70.8046875,115.24456799030304L71.02734375,115.5122584104538L71.25,115.77821135520935L71.47265625,116.04263246059418L71.6953125,116.30533397197723L71.91796875,116.56661689281464L72.140625,116.82628750801086L72.36328125,117.08436965942383L72.5859375,117.34097361564636L72.80859375,117.59609043598175L73.03125,117.84965753555298L73.25390625,118.10161828994751L73.4765625,118.35215449333191L73.69921875,118.60108137130737L73.921875,118.84867012500763L74.14453125,119.0946912765503L74.3671875,119.33917462825775L74.58984375,119.58236157894135L74.81250000000001,119.82397794723511L75.03515625,120.06420254707336L75.2578125,120.30294299125671L75.48046874999999,120.54028868675232L75.703125,120.7762098312378L75.92578125,121.01070642471313L76.1484375,121.24387085437775L76.37109375,121.47552728652954L76.59375,121.70586347579956L76.81640625,121.934894323349L77.0390625,122.16243207454681L77.26171875,122.38871216773987L77.484375,122.6135528087616L77.70703125,122.83710896968842L77.9296875,123.05928230285645L78.15234375,123.2801741361618L78.375,123.49968910217285L78.59765625,123.71793746948242L78.8203125,123.93485963344574L79.04296875,124.15039896965027L79.265625,124.36483263969421L79.48828125,124.57781493663788L79.7109375,124.78959918022156L79.93359375,125.0001734495163L80.15625,125.20935297012329L80.37890625,125.41743874549866L80.60156250000001,125.6241238117218L80.82421875,125.82965850830078L81.046875,126.03402495384216L81.26953125,126.23713076114655L81.4921875,126.4389431476593L81.71484375,126.6395902633667L81.9375,126.83905720710754L82.16015625,127.03732013702393L82.3828125,127.23435521125793L82.60546875,127.43029952049255L82.828125,127.62502789497375L83.05078125,127.81855821609497L83.2734375,128.01100075244904L83.49609375,128.20229291915894L83.71875,128.392413854599L83.94140625,128.5813546180725L84.1640625,128.76922845840454L84.38671875,128.95588636398315L84.609375,129.14149224758148L84.83203125,129.32608485221863L85.0546875,129.5094108581543L85.27734375,129.6917712688446L85.5,129.8729008436203L85.72265625,130.05304992198944L85.9453125,130.2320694923401L86.16796875,130.41004300117493L86.39062499999999,130.58701515197754L86.61328125,130.76281905174255L86.8359375,130.93769013881683L87.05859375,131.11136317253113L87.28125,131.2841123342514L87.50390625,131.45577669143677L87.7265625,131.62643671035767L87.94921875,131.79608345031738L88.171875,131.96473479270935L88.39453125,132.13230729103088L88.6171875,132.29899764060974L88.83984375,132.46459424495697L89.0625,132.6291835308075L89.28515625,132.7928102016449L89.5078125,132.95555174350739L89.73046875,133.11723232269287L89.953125,133.277947306633L90.17578125,133.43778312206268L90.3984375,133.59656393527985L90.62109375,133.75440001487732L90.84375,133.91131222248077L91.06640625,134.06727075576782L91.2890625,134.2223173379898L91.51171875000001,134.3764340877533L91.734375,134.52968060970306L91.95703125,134.6819645166397L92.17968749999999,134.83337223529816L92.40234375,134.98379349708557L92.625,135.13342052698135L92.84765625,135.28204917907715L93.0703125,135.42984187602997L93.29296875,135.57673305273056L93.515625,135.72276145219803L93.73828125,135.8679285645485L93.9609375,136.0121375322342L94.18359375,136.15562826395035L94.40625,136.29816830158234L94.62890625,136.43988132476807L94.8515625,136.58073604106903L95.07421875,136.72079205513L95.296875,136.85994505882263L95.51953125,136.9982874393463L95.7421875,137.13582068681717L95.96484375,137.27253288030624L96.1875,137.40837633609772L96.41015625,137.54343897104263L96.6328125,137.67771184444427L96.85546875,137.81119048595428L97.078125,137.94381976127625L97.30078125000001,138.07568311691284L97.5234375,138.2067835330963L97.74609375,138.33712100982666L97.96875,138.46664190292358L98.19140625,138.59537601470947L98.4140625,138.72331589460373L98.63671875,138.8505256175995L98.859375,138.97698879241943L99.08203125,139.10273373126984L99.3046875,139.22764867544174L99.52734375,139.3517842888832L99.75,139.47530448436737L99.97265625,139.5980155467987L100.1953125,139.71996366977692L100.41796875,139.8411875963211L100.640625,139.96173202991486L100.86328125,140.08160889148712L101.0859375,140.2006095647812L101.30859375,140.31903952360153L101.53125,140.43671399354935L101.75390625,140.553637444973L101.9765625,140.6699901819229L102.19921875,140.78549653291702L102.421875,140.90036511421204L102.64453125,141.0146063566208L102.8671875,141.1280906200409L103.08984374999999,141.24093562364578L103.3125,141.35307431221008L103.53515625,141.46458864212036L103.7578125,141.57540261745453L103.98046875,141.68558180332184L104.203125,141.79506063461304L104.42578125,141.9038689136505L104.6484375,142.01213479042053L104.87109375,142.1196436882019L105.09375,142.22654163837433L105.31640625,142.33279287815094L105.5390625,142.4384406208992L105.76171875,142.54341781139374L105.984375,142.64780938625336L106.20703125,142.75155425071716L106.4296875,142.8546479344368L106.65234375,142.95716643333435L106.875,143.0590546131134L107.09765625,143.16036462783813L107.3203125,143.26106667518616L107.54296875,143.36113095283508L107.765625,143.46063643693924L107.98828125,143.55951011180878L108.21093750000001,143.65779519081116L108.43359375,143.75550508499146L108.65625,143.85262340307236L108.87890624999999,143.94915759563446L109.1015625,144.04515385627747L109.32421875,144.14048552513123L109.546875,144.2353567481041L109.76953125,144.32957231998444L109.9921875,144.4232812523842L110.21484375,144.51641499996185L110.4375,144.6089631319046L110.66015625,144.70101207494736L110.8828125,144.79249477386475L111.10546875,144.883414208889L111.328125,144.97375696897507L111.55078125,145.06363779306412L111.7734375,145.15296280384064L111.99609375,145.24173498153687L112.21875,145.32995581626892L112.44140625,145.41762828826904L112.6640625,145.5048656463623L112.88671875,145.59154272079468L113.109375,145.67768335342407L113.33203125,145.76329797506332L113.5546875,145.8483850955963L113.77734375,145.93303561210632L114.00000000000001,146.01709008216858L114.22265625,146.1007198691368L114.4453125,146.18381023406982L114.66796875,146.26640141010284L114.890625,146.34856343269348L115.11328125,146.43014132976532L115.3359375,146.51130497455597L115.55859375,146.59191727638245L115.78125,146.67208850383759L116.00390625,146.75179183483124L116.2265625,146.83100044727325L116.44921875,146.90973073244095L116.671875,146.98798418045044L116.89453125,147.0658203959465L117.1171875,147.14313507080078L117.33984375,147.2199922800064L117.5625,147.29642629623413L117.78515625,147.37234771251678L118.0078125,147.44787871837616L118.23046875,147.52288296818733L118.453125,147.59751170873642L118.67578125,147.67166882753372L118.8984375,147.74532824754715L119.12109375,147.81862258911133L119.34375,147.89146691560745L119.56640625,147.9638858139515L119.78906249999999,148.03580105304718L120.01171875,148.1073459982872L120.234375,148.17847445607185L120.45703125,148.24916258454323L120.6796875,148.31937089562416L120.90234375,148.38923797011375L121.125,148.45861181616783L121.34765625,148.52765411138535L121.5703125,148.59626352787018L121.79296875,148.66442367434502L122.015625,148.7321636080742L122.23828125,148.7995719909668L122.4609375,148.86652290821075L122.68359375,148.93307223916054L122.90625,148.99922370910645L123.12890625,149.06500339508057L123.3515625,149.1303762793541L123.57421875,149.19538408517838L123.796875,149.25999701023102L124.01953125,149.32420909404755L124.2421875,149.3880158662796L124.46484375,149.45150300860405L124.6875,149.51456248760223L124.91015625000001,149.57724198698997L125.1328125,149.63956087827682L125.35546875,149.70151394605637L125.57812499999999,149.76310715079308L125.80078125,149.82427716255188L126.0234375,149.8850865662098L126.24609375,149.945600181818L126.46875,150.00571593642235L126.69140625,150.06548076868057L126.9140625,150.12483656406403L127.13671875,150.18390625715256L127.359375,150.24257734417915L127.58203125,150.3009131550789L127.8046875,150.35890847444534L128.02734375,150.416569262743L128.25,150.4738411307335L128.47265625,150.53083211183548L128.6953125,150.58743864297867L128.91796875,150.64367413520813L129.140625,150.69964364171028L129.36328125,150.7552346587181L129.5859375,150.81048667430878L129.80859375,150.86544960737228L130.03125,150.92008769512177L130.25390625,150.97435250878334L130.4765625,151.0283088684082L130.69921875,151.08196645975113L130.921875,151.1352589726448L131.14453125,151.18829369544983L131.3671875,151.24099612236023L131.58984375,151.29332602024078L131.8125,151.34541600942612L132.03515625,151.3971647620201L132.2578125,151.44857078790665L132.48046875,151.49971455335617L132.703125,151.55054539442062L132.92578125,151.60107225179672L133.1484375,151.65125712752342L133.37109375,151.7011708021164L133.59375,151.75080358982086L133.81640625,151.8001040816307L134.0390625,151.849122941494L134.26171874999997,151.89787432551384L134.484375,151.94629341363907L134.70703125,151.99444949626923L134.9296875,152.0423336327076L135.15234375,152.0899011194706L135.375,152.1371951699257L135.59765625,152.18423068523407L135.8203125,152.2309547662735L136.04296875,152.27736443281174L136.265625,152.32357814908028L136.48828125,152.36947745084763L136.7109375,152.41507649421692L136.93359375,152.46042668819427L137.15625,152.50550791621208L137.37890625,152.5503022968769L137.6015625,152.5948604941368L137.82421875,152.6391139626503L138.046875,152.68312230706215L138.26953125,152.72689446806908L138.4921875,152.7703782916069L138.71484375,152.81362146139145L138.9375,152.85657852888107L139.16015625,152.89929419755936L139.38281249999997,152.9417371749878L139.60546875,152.98394918441772L139.828125,153.02587062120438L140.05078125,153.0675745010376L140.2734375,153.1090109050274L140.49609375,153.15021187067032L140.71875,153.19115579128265L140.94140625,153.23186725378036L141.1640625,153.27236637473106L141.38671875,153.31254959106445L141.609375,153.35255771875381L141.83203125,153.39231178164482L142.0546875,153.4318095445633L142.27734375,153.47108975052834L142.5,153.510103225708L142.72265625,153.54891926050186L142.9453125,153.5874879360199L143.16796875,153.62583979964256L143.390625,153.66393238306046L143.61328125,153.70184689760208L143.8359375,153.73949989676476L144.05859375,153.77691000699997L144.28125,153.8141129910946L144.50390625000003,153.85109581053257L144.7265625,153.88786256313324L144.94921875,153.9244031906128L145.171875,153.960739672184L145.39453125,153.99684071540833L145.6171875,154.03271824121475L145.83984375,154.06840354204178L146.0625,154.1038977354765L146.28515625,154.13911178708076L146.5078125,154.17416229844093L146.73046875,154.20901201665401L146.953125,154.24364566802979L147.17578125,154.27806101739407L147.3984375,154.31224204599857L147.62109375,154.34624686837196L147.84375,154.38007734715939L148.06640625,154.41364407539368L148.2890625,154.44709196686745L148.51171875,154.48027089238167L148.734375,154.51328739523888L148.95703125,154.5460755378008L149.1796875,154.57867220044136L149.40234375,154.61109079420567L149.62500000000003,154.64329332113266L149.84765625,154.6753427386284L150.0703125,154.70719546079636L150.29296875,154.73882503807545L150.515625,154.77025978267193L150.73828125,154.8015447705984L150.96093749999997,154.83260959386826L151.18359375,154.8635295033455L151.40625,154.89425607025623L151.62890625,154.9247758835554L151.8515625,154.95511054992676L152.07421875,154.9852854013443L152.296875,155.0152713805437L152.51953125,155.04507184028625L152.7421875,155.07468082010746L152.96484375,155.10413259267807L153.1875,155.13339959084988L153.41015625,155.16248255968094L153.6328125,155.1914243400097L153.85546875,155.22017426788807L154.078125,155.2487599104643L154.30078125,155.27713879942894L154.5234375,155.30539587140083L154.74609375,155.33346518874168L154.96875,155.36136388778687L155.19140625,155.38911804556847L155.4140625,155.416659116745L155.63671875,155.4440675675869L155.859375,155.4713061451912L156.08203124999997,155.49836963415146L156.3046875,155.52529342472553L156.52734375,155.55205777287483L156.75,155.57864889502525L156.97265625,155.60507833957672L157.1953125,155.63134834170341L157.41796875,155.6574745476246L157.640625,155.68344354629517L157.86328125,155.70925310254097L158.0859375,155.73490172624588L158.30859375,155.7603957504034L158.53125,155.78575864434242L158.75390625,155.81096172332764L158.9765625,155.8360120654106L159.19921875,155.8608988672495L159.421875,155.88563665747643L159.64453125,155.91021686792374L159.8671875,155.93468308448792L160.08984375,155.95900140702724L160.3125,155.9831565618515L160.53515625,156.00717350840569L160.7578125,156.03103660047054L160.98046875,156.05478830635548L161.20312500000003,156.07836194336414L161.42578125,156.10181264579296L161.6484375,156.12512476742268L161.87109375,156.14829495549202L162.09375,156.1713157594204L162.31640625,156.19420319795609L162.5390625,156.21694199740887L162.76171875,156.2395742535591L162.984375,156.26204781234264L163.20703125,156.28440141677856L163.4296875,156.3066302239895L163.65234375,156.32870592176914L163.875,156.35066092014313L164.09765625,156.3724710047245L164.3203125,156.39415964484215L164.54296875,156.41570709645748L164.765625,156.43715657293797L164.98828125,156.45844213664532L165.2109375,156.47963158786297L165.43359375,156.5006947517395L165.65625,156.52159549295902L165.87890625,156.5423945337534L166.1015625,156.56307063996792L166.32421875000003,156.58361598849297L166.546875,156.6040439903736L166.76953125,156.624343842268L166.9921875,156.64452075958252L167.21484375,156.6645747423172L167.4375,156.68453931808472L167.66015624999997,156.70435935258865L167.8828125,156.7240460216999L168.10546875,156.74365743994713L168.328125,156.76310569047928L168.55078125,156.78247347474098L168.7734375,156.80169820785522L168.99609375,156.8208372592926L169.21875,156.83982022106647L169.44140625,156.8587301671505L169.6640625,156.8775250017643L169.88671875,156.8961749225855L170.109375,156.91474102437496L170.33203125,156.93320393562317L170.5546875,156.951512247324L170.77734375,156.96974270045757L171,156.987871453166L171.22265625,157.00586143881083L171.4453125,157.02377319335938L171.66796875,157.04157207161188L171.890625,157.0592411234975L172.11328125,157.07683231681585L172.3359375,157.0943197607994L172.55859375,157.11167067289352L172.78124999999997,157.12895285338163L173.00390625,157.14612495154142L173.2265625,157.1631694585085L173.44921875,157.1801470965147L173.671875,157.1969934180379L173.89453125,157.21376728266478L174.1171875,157.23040759563446L174.33984375,157.24698923528194L174.5625,157.26343266665936L174.78515625,157.2797892987728L175.0078125,157.29607440531254L175.23046875,157.31223303824663L175.453125,157.32829611748457L175.67578125,157.3442679271102L175.8984375,157.36014232039452L176.12109375,157.37593289464712L176.34375,157.39161618053913L176.56640625,157.40722253918648L176.7890625,157.42273222655058L177.01171875,157.4381174892187L177.234375,157.45344631373882L177.45703125,157.46865462511778L177.6796875,157.4838074296713L177.90234375000003,157.49883506447077L178.125,157.51381054520607L178.34765625,157.5286653265357L178.5703125,157.54344057291746L178.79296875,157.5581306964159L179.015625,157.57273010909557L179.23828125,157.58725073188543L179.4609375,157.60165475308895L179.68359375,157.61600643396378L179.90625,157.630250826478L180.12890625,157.64443077147007L180.3515625,157.65850882977247L180.57421875,157.6725086569786L180.796875,157.68642000854015L181.01953125,157.7002527564764L181.2421875,157.71400839090347L181.46484375,157.72765785455704L181.6875,157.7412573993206L181.91015625,157.7547561749816L182.1328125,157.76819981634617L182.35546875,157.78154138475657L182.578125,157.794808447361L182.80078125,157.8079715743661L183.02343750000003,157.82108664512634L183.24609375,157.83412739634514L183.46875,157.84706309437752L183.69140625,157.85993173718452L183.9140625,157.87271730601788L184.13671875,157.88544289767742L184.35937499999997,157.89809174835682L184.58203125,157.91064448654652L184.8046875,157.92315140366554L185.02734375,157.93556854128838L185.25,157.94790744781494L185.47265625,157.96017687767744L185.6953125,157.97237664461136L185.91796875,157.98448979854584L186.140625,157.99655098468065L186.36328125,158.00853207707405L186.5859375,158.020438849926L186.80859375,158.03227763623L187.03125,158.04402329027653L187.25390625,158.05573485791683L187.4765625,158.06735161691904L187.69921875,158.07890690863132L187.921875,158.0903945863247L188.14453125,158.1018003076315L188.3671875,158.11315685510635L188.58984375,158.1244307011366L188.8125,158.13564531505108L189.03515625,158.1467990204692L189.2578125,158.1578717008233L189.48046874999997,158.16889725625515L189.703125,158.17984327673912L189.92578125,158.19072280079126L190.1484375,158.20153005421162L190.37109375,158.21229111403227L190.59375,158.2229771092534L190.81640625,158.23359549045563L191.0390625,158.24416171759367L191.26171875,158.25464375317097L191.484375,158.26509058475494L191.70703125,158.27546514570713L191.9296875,158.28577805310488L192.15234375,158.2960131019354L192.375,158.30621499568224L192.59765625,158.31633903086185L192.8203125,158.32638632506132L193.04296875,158.33640046417713L193.265625,158.3463380485773L193.48828125,158.3562219887972L193.7109375,158.3660513535142L193.93359375,158.37583247572184L194.15625,158.3855377882719L194.37890625,158.39519001543522L194.60156250000003,158.40478897094727L194.82421875,158.41431342065334L195.046875,158.42379055917263L195.26953125,158.43321554362774L195.4921875,158.44258818775415L195.71484375,158.45189275220037L195.9375,158.4611458145082L196.16015625,158.47034672275186L196.3828125,158.4795012511313L196.60546875,158.48858946934342L196.828125,158.4976294450462L197.05078125,158.506595287472L197.2734375,158.5155439004302L197.49609375,158.52441418915987L197.71875,158.53324657306075L197.94140625,158.5420017503202L198.1640625,158.5507195815444L198.38671875,158.5593881458044L198.609375,158.56799291446805L198.83203125,158.57657700777054L199.0546875,158.58506871387362L199.27734375,158.5935365781188L199.5,158.60194008797407L199.72265625000003,158.61030587926507L199.9453125,158.6186190508306L200.16796875,158.62687410786748L200.390625,158.63508716225624L200.61328125,158.64325653761625L200.8359375,158.65136463195086L201.05859374999997,158.65942625328898L201.28125,158.66742556914687L201.50390625,158.67540607228875L201.7265625,158.68332538753748L201.94921875,158.691188916564L202.171875,158.69902590289712L202.39453125,158.70680635794997L202.6171875,158.7145277671516L202.83984375,158.72220437973738L203.0625,158.72984867542982L203.28515625,158.7374517135322L203.5078125,158.7449993379414L203.73046875,158.75250374898314L203.953125,158.75995349138975L204.17578125,158.7673862837255L204.3984375,158.77474308013916L204.62109375,158.78207901492715L204.84375,158.78936177119613L205.06640625,158.79658315330744L205.2890625,158.80379159003496L205.51171875,158.8109465688467L205.734375,158.81804548203945L205.95703125,158.82512856274843L206.17968749999997,158.8321333192289L206.40234375,158.83912727236748L206.625,158.8460648804903L206.84765625,158.85297156870365L207.0703125,158.85982377454638L207.29296875,158.86664310470223L207.515625,158.87340739369392L207.73828125,158.8801570609212L207.9609375,158.8868387416005L208.18359375,158.893503844738L208.40625,158.90011930838227L208.62890625,158.9066855981946L208.8515625,158.91323698684573L209.07421875,158.91971815377474L209.296875,158.92618721351027L209.51953125,158.93260803073645L209.7421875,158.93898032605648L209.96484375,158.9453386515379L210.1875,158.95163159817457L210.41015625,158.9579090848565L210.6328125,158.96414251998067L210.85546875,158.97032473236322L211.078125,158.97648068144917L211.30078125000003,158.98260217159986L211.5234375,158.98868333548307L211.74609375,158.99473041296005L211.96875,159.00075159966946L212.19140625,159.0067264996469L212.4140625,159.01265110820532L212.63671875,159.0185567177832L212.859375,159.02442852035165L213.08203125,159.030255433172L213.3046875,159.03605664148927L213.52734375,159.04182814061642L213.75,159.04755782335997L213.97265625,159.0532422438264L214.1953125,159.0588990971446L214.41796875,159.0645306184888L214.640625,159.07012041658163L214.86328125,159.0756817162037L215.0859375,159.08122336491942L215.30859375,159.08669739961624L215.53125,159.09216575324535L215.75390625,159.09759387373924L215.9765625,159.10299852490425L216.19921875,159.10835660994053L216.42187500000003,159.11368153989315L216.64453125,159.11897480487823L216.8671875,159.124245531857L217.08984375,159.12949558347464L217.3125,159.13468742743134L217.53515625,159.1398678161204L217.75781249999997,159.14501393213868L217.98046875,159.15012046694756L218.203125,159.1552012041211L218.42578125,159.1602472960949L218.6484375,159.16526721790433L218.87109375,159.17026348412037L219.09375,159.1752265021205L219.31640625,159.18016325682402L219.5390625,159.18506164103746L219.76171875,159.18992714956403L219.984375,159.19478241354227L220.20703125,159.1995856165886L220.4296875,159.20436991378665L220.65234375,159.20912878587842L220.875,159.21385552734137L221.09765625,159.21855926513672L221.3203125,159.2232273798436L221.54296875,159.22787472605705L221.765625,159.23248807899654L221.98828125,159.23708084970713L222.2109375,159.2416380904615L222.43359375,159.24617731012404L222.65625,159.25068165175617L222.87890624999997,159.25516503863037L223.1015625,159.25961424596608L223.32421875,159.26404454745352L223.546875,159.26844094879925L223.76953125,159.2728172801435L223.9921875,159.27716106176376L224.21484375,159.281485658139L224.4375,159.2857811972499L224.66015625,159.29005769081414L224.8828125,159.2943000048399L225.10546875,159.2985195480287L225.328125,159.30271143093705L225.55078125,159.30688738822937L225.7734375,159.31102967821062L225.99609375,159.3151379749179L226.21875,159.31923421099782L226.44140625,159.32331005111337L226.6640625,159.3273536209017L226.88671875,159.33136776089668L227.109375,159.33536825701594L227.33203125,159.33935031294823L227.5546875,159.34329697862267L227.77734375,159.3472202681005L228.00000000000003,159.3511256761849L228.22265625,159.35500090941787L228.4453125,159.35886110179126L228.66796875,159.3626900948584L228.890625,159.36650665476918L229.11328125,159.37029452994466L229.3359375,159.37406154349446L229.55859375,159.3778026662767L229.78125,159.38151654787362L230.00390625,159.38521566800773L230.2265625,159.38889918848872L230.44921875,159.39253954216838L230.671875,159.39618362113833L230.89453125,159.3997973855585L231.1171875,159.40338134765625L231.33984375,159.40693993121386L231.5625,159.41049739718437L231.78515625,159.4140145368874L232.0078125,159.41751789301634L232.23046875,159.42100732587278L232.453125,159.42445699125528L232.67578125,159.42790530622005L232.8984375,159.43131990730762L233.12109375000003,159.43473022431135L233.34375,159.43809946998954L233.56640625,159.44146052002907L233.7890625,159.4448053650558L234.01171875,159.44812608882785L234.234375,159.45142101496458L234.45703124999997,159.45470560342073L234.6796875,159.4579611811787L234.90234375,159.46120977401733L235.125,159.46442935615778L235.34765625,159.4676270056516L235.5703125,159.47081073187292L235.79296875,159.47396949864924L236.015625,159.4771187659353L236.23828125,159.48024516925216L236.4609375,159.4833562988788L236.68359375,159.48644754476845L236.90625,159.4895116891712L237.12890625,159.49256535619497L237.3515625,159.4955978821963L237.57421875,159.49861974455416L237.796875,159.50161753222346L238.01953125,159.5045891031623L238.2421875,159.50755592435598L238.46484375,159.51049629598856L238.6875,159.5134267024696L238.91015625,159.51633322052658L239.1328125,159.5192214846611L239.35546875,159.5220976881683L239.57812499999997,159.52495247125626L239.80078125,159.52779575251043L240.0234375,159.53061770647764L240.24609375,159.5334222447127L240.46875,159.53621258027852L240.69140625,159.53898224048316L240.9140625,159.5417428202927L241.13671875,159.54448295757174L241.359375,159.54720064997673L241.58203125,159.54991126433015L241.8046875,159.55259980633855L242.02734375,159.55527922138572L242.25,159.55793898552656L242.47265625,159.5605781674385L242.6953125,159.5632093399763L242.91796875,159.56581792794168L243.140625,159.56840979866683L243.36328125,159.57099268212914L243.5859375,159.57355372607708L243.80859375,159.57610871642828L244.03125,159.57864480093122L244.25390625,159.581158766523L244.4765625,159.58366695791483L244.69921875000003,159.58615605719388" style="fill: none;" fill="none"></path></g></g></g></g></g></g><g transform="translate(62, 176)" clip-path="url(#clip_1)"><clipPath id="clip_1"><rect width="267" height="23"></rect></clipPath><g><g><line x1="0" y1="0" x2="0" y2="5" style="visibility: inherit;" fill="rgb(0, 0, 0)" stroke="rgb(204, 204, 204)" stroke-width="1px"></line><line x1="22.265625" y1="0" x2="22.265625" y2="5" style="visibility: inherit;" fill="rgb(0, 0, 0)" stroke="rgb(204, 204, 204)" stroke-width="1px"></line><line x1="44.53125" y1="0" x2="44.53125" y2="5" style="visibility: inherit;" fill="rgb(0, 0, 0)" stroke="rgb(204, 204, 204)" stroke-width="1px"></line><line x1="66.796875" y1="0" x2="66.796875" y2="5" style="visibility: inherit;" fill="rgb(0, 0, 0)" stroke="rgb(204, 204, 204)" stroke-width="1px"></line><line x1="89.0625" y1="0" x2="89.0625" y2="5" style="visibility: inherit;" fill="rgb(0, 0, 0)" stroke="rgb(204, 204, 204)" stroke-width="1px"></line><line x1="111.328125" y1="0" x2="111.328125" y2="5" style="visibility: inherit;" fill="rgb(0, 0, 0)" stroke="rgb(204, 204, 204)" stroke-width="1px"></line><line x1="133.59375" y1="0" x2="133.59375" y2="5" style="visibility: inherit;" fill="rgb(0, 0, 0)" stroke="rgb(204, 204, 204)" stroke-width="1px"></line><line x1="155.859375" y1="0" x2="155.859375" y2="5" style="visibility: inherit;" fill="rgb(0, 0, 0)" stroke="rgb(204, 204, 204)" stroke-width="1px"></line><line x1="178.125" y1="0" x2="178.125" y2="5" style="visibility: inherit;" fill="rgb(0, 0, 0)" stroke="rgb(204, 204, 204)" stroke-width="1px"></line><line x1="200.390625" y1="0" x2="200.390625" y2="5" style="visibility: inherit;" fill="rgb(0, 0, 0)" stroke="rgb(204, 204, 204)" stroke-width="1px"></line><line x1="222.65625" y1="0" x2="222.65625" y2="5" style="visibility: inherit;" fill="rgb(0, 0, 0)" stroke="rgb(204, 204, 204)" stroke-width="1px"></line><line x1="244.921875" y1="0" x2="244.921875" y2="5" style="visibility: inherit;" fill="rgb(0, 0, 0)" stroke="rgb(204, 204, 204)" stroke-width="1px"></line><line x1="267.1875" y1="0" x2="267.1875" y2="5" style="visibility: inherit;" fill="rgb(0, 0, 0)" stroke="rgb(204, 204, 204)" stroke-width="1px"></line></g><g transform="translate(0, 8)"><text x="0" y="0" dx="0em" dy="0.95em" style="text-anchor: middle; visibility: hidden; font-family: &quot;Helvetica Neue&quot;, sans-serif; font-size: 12px; font-weight: 200;" fill="rgb(50, 49, 63)" stroke="none" stroke-width="1px">-100</text><text x="22.265625" y="0" dx="0em" dy="0.95em" style="text-anchor: middle; visibility: inherit; font-family: &quot;Helvetica Neue&quot;, sans-serif; font-size: 12px; font-weight: 200;" fill="rgb(50, 49, 63)" stroke="none" stroke-width="1px">0</text><text x="44.53125" y="0" dx="0em" dy="0.95em" style="text-anchor: middle; visibility: hidden; font-family: &quot;Helvetica Neue&quot;, sans-serif; font-size: 12px; font-weight: 200;" fill="rgb(50, 49, 63)" stroke="none" stroke-width="1px">100</text><text x="66.796875" y="0" dx="0em" dy="0.95em" style="text-anchor: middle; visibility: inherit; font-family: &quot;Helvetica Neue&quot;, sans-serif; font-size: 12px; font-weight: 200;" fill="rgb(50, 49, 63)" stroke="none" stroke-width="1px">200</text><text x="89.0625" y="0" dx="0em" dy="0.95em" style="text-anchor: middle; visibility: hidden; font-family: &quot;Helvetica Neue&quot;, sans-serif; font-size: 12px; font-weight: 200;" fill="rgb(50, 49, 63)" stroke="none" stroke-width="1px">300</text><text x="111.328125" y="0" dx="0em" dy="0.95em" style="text-anchor: middle; visibility: inherit; font-family: &quot;Helvetica Neue&quot;, sans-serif; font-size: 12px; font-weight: 200;" fill="rgb(50, 49, 63)" stroke="none" stroke-width="1px">400</text><text x="133.59375" y="0" dx="0em" dy="0.95em" style="text-anchor: middle; visibility: hidden; font-family: &quot;Helvetica Neue&quot;, sans-serif; font-size: 12px; font-weight: 200;" fill="rgb(50, 49, 63)" stroke="none" stroke-width="1px">500</text><text x="155.859375" y="0" dx="0em" dy="0.95em" style="text-anchor: middle; visibility: inherit; font-family: &quot;Helvetica Neue&quot;, sans-serif; font-size: 12px; font-weight: 200;" fill="rgb(50, 49, 63)" stroke="none" stroke-width="1px">600</text><text x="178.125" y="0" dx="0em" dy="0.95em" style="text-anchor: middle; visibility: hidden; font-family: &quot;Helvetica Neue&quot;, sans-serif; font-size: 12px; font-weight: 200;" fill="rgb(50, 49, 63)" stroke="none" stroke-width="1px">700</text><text x="200.390625" y="0" dx="0em" dy="0.95em" style="text-anchor: middle; visibility: inherit; font-family: &quot;Helvetica Neue&quot;, sans-serif; font-size: 12px; font-weight: 200;" fill="rgb(50, 49, 63)" stroke="none" stroke-width="1px">800</text><text x="222.65625" y="0" dx="0em" dy="0.95em" style="text-anchor: middle; visibility: hidden; font-family: &quot;Helvetica Neue&quot;, sans-serif; font-size: 12px; font-weight: 200;" fill="rgb(50, 49, 63)" stroke="none" stroke-width="1px">900</text><text x="244.921875" y="0" dx="0em" dy="0.95em" style="text-anchor: middle; visibility: inherit; font-family: &quot;Helvetica Neue&quot;, sans-serif; font-size: 12px; font-weight: 200;" fill="rgb(50, 49, 63)" stroke="none" stroke-width="1px">1k</text><text x="267.1875" y="0" dx="0em" dy="0.95em" style="text-anchor: middle; visibility: hidden; font-family: &quot;Helvetica Neue&quot;, sans-serif; font-size: 12px; font-weight: 200;" fill="rgb(50, 49, 63)" stroke="none" stroke-width="1px">1.1k</text></g><line x1="0" y1="0" x2="267.1875" y2="0" fill="rgb(0, 0, 0)" stroke="rgb(204, 204, 204)" stroke-width="1px"></line></g></g></g></g></svg>