<?xml version="1.0" encoding="UTF-8" standalone="no"?>
<!DOCTYPE svg PUBLIC "-//W3C//DTD SVG 1.1//EN"
 "http://www.w3.org/Graphics/SVG/1.1/DTD/svg11.dtd">
<!-- Generated by graphviz version 2.40.1 (20161225.0304)
 -->
<!-- Title: Tree Pages: 1 -->
<svg width="351pt" height="314pt"
 viewBox="0.00 0.00 351.00 314.00" xmlns="http://www.w3.org/2000/svg" xmlns:xlink="http://www.w3.org/1999/xlink">
<g id="graph0" class="graph" transform="scale(1 1) rotate(0) translate(4 310)">
<title>Tree</title>
<polygon fill="#ffffff" stroke="transparent" points="-4,4 -4,-310 347,-310 347,4 -4,4"/>
<!-- 0 -->
<g id="node1" class="node">
<title>0</title>
<path fill="#ffffff" stroke="#000000" d="M209.5,-306C209.5,-306 65.5,-306 65.5,-306 59.5,-306 53.5,-300 53.5,-294 53.5,-294 53.5,-235 53.5,-235 53.5,-229 59.5,-223 65.5,-223 65.5,-223 209.5,-223 209.5,-223 215.5,-223 221.5,-229 221.5,-235 221.5,-235 221.5,-294 221.5,-294 221.5,-300 215.5,-306 209.5,-306"/>
<text text-anchor="middle" x="137.5" y="-290.8" font-family="Helvetica,sans-Serif" font-size="14.00" fill="#000000">petal length (cm) &lt;= 2.45</text>
<text text-anchor="middle" x="137.5" y="-275.8" font-family="Helvetica,sans-Serif" font-size="14.00" fill="#000000">gini = 0.667</text>
<text text-anchor="middle" x="137.5" y="-260.8" font-family="Helvetica,sans-Serif" font-size="14.00" fill="#000000">samples = 150</text>
<text text-anchor="middle" x="137.5" y="-245.8" font-family="Helvetica,sans-Serif" font-size="14.00" fill="#000000">value = [50, 50, 50]</text>
<text text-anchor="middle" x="137.5" y="-230.8" font-family="Helvetica,sans-Serif" font-size="14.00" fill="#000000">class = setosa</text>
</g>
<!-- 1 -->
<g id="node2" class="node">
<title>1</title>
<path fill="#e58139" stroke="#000000" d="M105,-179.5C105,-179.5 12,-179.5 12,-179.5 6,-179.5 0,-173.5 0,-167.5 0,-167.5 0,-123.5 0,-123.5 0,-117.5 6,-111.5 12,-111.5 12,-111.5 105,-111.5 105,-111.5 111,-111.5 117,-117.5 117,-123.5 117,-123.5 117,-167.5 117,-167.5 117,-173.5 111,-179.5 105,-179.5"/>
<text text-anchor="middle" x="58.5" y="-164.3" font-family="Helvetica,sans-Serif" font-size="14.00" fill="#000000">gini = 0.0</text>
<text text-anchor="middle" x="58.5" y="-149.3" font-family="Helvetica,sans-Serif" font-size="14.00" fill="#000000">samples = 50</text>
<text text-anchor="middle" x="58.5" y="-134.3" font-family="Helvetica,sans-Serif" font-size="14.00" fill="#000000">value = [50, 0, 0]</text>
<text text-anchor="middle" x="58.5" y="-119.3" font-family="Helvetica,sans-Serif" font-size="14.00" fill="#000000">class = setosa</text>
</g>
<!-- 0&#45;&gt;1 -->
<g id="edge1" class="edge">
<title>0&#45;&gt;1</title>
<path fill="none" stroke="#000000" d="M109.8696,-222.8796C102.4237,-211.6636 94.3575,-199.5131 86.8718,-188.2372"/>
<polygon fill="#000000" stroke="#000000" points="89.7273,-186.2104 81.2805,-179.8149 83.8954,-190.082 89.7273,-186.2104"/>
<text text-anchor="middle" x="76.33" y="-200.6199" font-family="Helvetica,sans-Serif" font-size="14.00" fill="#000000">True</text>
</g>
<!-- 2 -->
<g id="node3" class="node">
<title>2</title>
<path fill="#ffffff" stroke="#000000" d="M286,-187C286,-187 147,-187 147,-187 141,-187 135,-181 135,-175 135,-175 135,-116 135,-116 135,-110 141,-104 147,-104 147,-104 286,-104 286,-104 292,-104 298,-110 298,-116 298,-116 298,-175 298,-175 298,-181 292,-187 286,-187"/>
<text text-anchor="middle" x="216.5" y="-171.8" font-family="Helvetica,sans-Serif" font-size="14.00" fill="#000000">petal width (cm) &lt;= 1.75</text>
<text text-anchor="middle" x="216.5" y="-156.8" font-family="Helvetica,sans-Serif" font-size="14.00" fill="#000000">gini = 0.5</text>
<text text-anchor="middle" x="216.5" y="-141.8" font-family="Helvetica,sans-Serif" font-size="14.00" fill="#000000">samples = 100</text>
<text text-anchor="middle" x="216.5" y="-126.8" font-family="Helvetica,sans-Serif" font-size="14.00" fill="#000000">value = [0, 50, 50]</text>
<text text-anchor="middle" x="216.5" y="-111.8" font-family="Helvetica,sans-Serif" font-size="14.00" fill="#000000">class = versicolor</text>
</g>
<!-- 0&#45;&gt;2 -->
<g id="edge2" class="edge">
<title>0&#45;&gt;2</title>
<path fill="none" stroke="#000000" d="M165.1304,-222.8796C170.93,-214.1434 177.1059,-204.8404 183.0908,-195.8253"/>
<polygon fill="#000000" stroke="#000000" points="186.1368,-197.5652 188.7517,-187.2981 180.3049,-193.6935 186.1368,-197.5652"/>
<text text-anchor="middle" x="193.7022" y="-208.103" font-family="Helvetica,sans-Serif" font-size="14.00" fill="#000000">False</text>
</g>
<!-- 3 -->
<g id="node4" class="node">
<title>3</title>
<path fill="#4de88e" stroke="#000000" d="M196,-68C196,-68 99,-68 99,-68 93,-68 87,-62 87,-56 87,-56 87,-12 87,-12 87,-6 93,0 99,0 99,0 196,0 196,0 202,0 208,-6 208,-12 208,-12 208,-56 208,-56 208,-62 202,-68 196,-68"/>
<text text-anchor="middle" x="147.5" y="-52.8" font-family="Helvetica,sans-Serif" font-size="14.00" fill="#000000">gini = 0.168</text>
<text text-anchor="middle" x="147.5" y="-37.8" font-family="Helvetica,sans-Serif" font-size="14.00" fill="#000000">samples = 54</text>
<text text-anchor="middle" x="147.5" y="-22.8" font-family="Helvetica,sans-Serif" font-size="14.00" fill="#000000">value = [0, 49, 5]</text>
<text text-anchor="middle" x="147.5" y="-7.8" font-family="Helvetica,sans-Serif" font-size="14.00" fill="#000000">class = versicolor</text>
</g>
<!-- 2&#45;&gt;3 -->
<g id="edge3" class="edge">
<title>2&#45;&gt;3</title>
<path fill="none" stroke="#000000" d="M190.8069,-103.9815C185.3469,-95.1585 179.5716,-85.8258 174.0793,-76.9506"/>
<polygon fill="#000000" stroke="#000000" points="176.942,-74.9254 168.7035,-68.2637 170.9896,-78.609 176.942,-74.9254"/>
</g>
<!-- 4 -->
<g id="node5" class="node">
<title>4</title>
<path fill="#843de6" stroke="#000000" d="M331,-68C331,-68 238,-68 238,-68 232,-68 226,-62 226,-56 226,-56 226,-12 226,-12 226,-6 232,0 238,0 238,0 331,0 331,0 337,0 343,-6 343,-12 343,-12 343,-56 343,-56 343,-62 337,-68 331,-68"/>
<text text-anchor="middle" x="284.5" y="-52.8" font-family="Helvetica,sans-Serif" font-size="14.00" fill="#000000">gini = 0.043</text>
<text text-anchor="middle" x="284.5" y="-37.8" font-family="Helvetica,sans-Serif" font-size="14.00" fill="#000000">samples = 46</text>
<text text-anchor="middle" x="284.5" y="-22.8" font-family="Helvetica,sans-Serif" font-size="14.00" fill="#000000">value = [0, 1, 45]</text>
<text text-anchor="middle" x="284.5" y="-7.8" font-family="Helvetica,sans-Serif" font-size="14.00" fill="#000000">class = virginica</text>
</g>
<!-- 2&#45;&gt;4 -->
<g id="edge4" class="edge">
<title>2&#45;&gt;4</title>
<path fill="none" stroke="#000000" d="M241.8207,-103.9815C247.2016,-95.1585 252.8932,-85.8258 258.3059,-76.9506"/>
<polygon fill="#000000" stroke="#000000" points="261.3851,-78.6236 263.6038,-68.2637 255.4088,-74.9789 261.3851,-78.6236"/>
</g>
</g>
</svg>
